<svg width="40" height="40" viewBox="0 0 40 40" fill="none" xmlns="http://www.w3.org/2000/svg">

  <path d="M8 12.4L6.52 7.73L8.41 5.84L13.08 7.32V9.28L18.28 14.48C18.28 14.61 18.28 14.75 18.28 14.88L15.48 17.33L10.48 12.4H8Z"
        stroke="#667085"
        stroke-width="2"
        stroke-linecap="round"
        stroke-linejoin="round"
        fill="none"/>

  <path d="M28 23.73C27.6 23.73 27.33 23.73 26.93 23.73C26.13 23.73 25.39 23.6 24.69 23.47L22.22 26.67L28.49 33.33C29.96 35.13 32.49 35.27 34.16 33.6C35.83 31.93 35.69 29.4 33.89 27.93L28 23.73Z"
        stroke="#667085"
        stroke-width="2"
        stroke-linecap="round"
        stroke-linejoin="round"
        fill="none"/>

  <path d="M32.53 18.67C34.67 16.53 35.33 13.33 34.53 10.67C34.4 10.13 33.8 10 33.47 10.4L28.8 15.07L25.2 11.47L29.87 6.8C30.27 6.4 30.13 5.8 29.6 5.67C26.93 4.87 23.73 5.53 21.6 7.73C19.2 10.13 18.67 13.73 19.96 16.67L6.63 29.33C5.16 31.13 5.03 33.73 6.56 35.6C8.23 37.27 10.76 37.13 12.16 35.47L24.83 22.13C27.83 23.53 31.43 22.93 32.53 18.67Z"
        stroke="#667085"
        stroke-width="2"
        stroke-linecap="round"
        stroke-linejoin="round"
        fill="none"/>

</svg>