<svg xmlns="http://www.w3.org/2000/svg" viewBox="0 0 20 20">
  <!-- First person -->
  <path d="M13.3332 17.5V15.8333C13.3332 14.9493 12.9821 14.1014 12.357 13.4763C11.7319 12.8512 10.8841 12.5 9.99984 12.5H4.99984C4.11578 12.5 3.26794 12.8512 2.64281 13.4763C2.01769 14.1014 1.6665 14.9493 1.6665 15.8333V17.5"
        stroke="#667085"
        stroke-width="1.66667"
        stroke-linecap="round"
        stroke-linejoin="round"
        fill="none"/>

  <!-- First person head -->
  <path d="M7.49984 9.16667C9.34079 9.16667 10.8332 7.67428 10.8332 5.83333C10.8332 3.99238 9.34079 2.5 7.49984 2.5C5.65889 2.5 4.1665 3.99238 4.1665 5.83333C4.1665 7.67428 5.65889 9.16667 7.49984 9.16667Z"
        stroke="#667085"
        stroke-width="1.66667"
        stroke-linecap="round"
        stroke-linejoin="round"
        fill="none"/>

  <!-- Second person partial -->
  <path d="M18.3332 17.5V15.8333C18.3327 15.0948 18.087 14.3773 17.6345 13.7936C17.1821 13.2099 16.5453 12.793 15.8332 12.6083"
        stroke="#667085"
        stroke-width="1.66667"
        stroke-linecap="round"
        stroke-linejoin="round"
        fill="none"/>

  <!-- Second person head -->
  <path d="M13.3332 2.60833C14.0476 2.79192 14.6865 3.20892 15.1405 3.79359C15.5945 4.37827 15.8413 5.09736 15.8413 5.8375C15.8413 6.57764 15.5945 7.29673 15.1405 7.88141C14.6865 8.46608 14.0476 8.88308 13.3332 9.06667"
        stroke="#667085"
        stroke-width="1.66667"
        stroke-linecap="round"
        stroke-linejoin="round"
        fill="none"/>
</svg>
