<svg xmlns="http://www.w3.org/2000/svg" width="20" height="20" viewBox="0 0 20 20" fill="none">
    <g stroke="#667085" stroke-width="1.66667" stroke-linecap="round" stroke-linejoin="round">
        <!-- Main gear circle -->
        <circle cx="10" cy="10" r="2.5"/>
        <!-- Gear teeth -->
        <path d="M16.17 12.5a1.37 1.37 0 0 0 .275 1.517l.05.05a1.667 1.667 0 0 1 0 2.358 1.667 1.667 0 0 1-2.358 0l-.05-.05a1.37 1.37 0 0 0-1.517-.275 1.37 1.37 0 0 0-.833 1.258V17.5a1.667 1.667 0 0 1-1.667 1.667 1.667 1.667 0 0 1-1.667-1.667v-.075a1.37 1.37 0 0 0-.9-1.258 1.37 1.37 0 0 0-1.517.275l-.05.05a1.667 1.667 0 0 1-2.358 0 1.667 1.667 0 0 1 0-2.358l.05-.05a1.37 1.37 0 0 0 .275-1.517 1.37 1.37 0 0 0-1.258-.833H2.5A1.667 1.667 0 0 1 .833 10 1.667 1.667 0 0 1 2.5 8.333h.075a1.37 1.37 0 0 0 1.258-.9 1.37 1.37 0 0 0-.275-1.517l-.05-.05a1.667 1.667 0 0 1 0-2.358 1.667 1.667 0 0 1 2.358 0l.05.05a1.37 1.37 0 0 0 1.517.275h.067a1.37 1.37 0 0 0 .833-1.258V2.5A1.667 1.667 0 0 1 10 .833 1.667 1.667 0 0 1 11.667 2.5v.075a1.37 1.37 0 0 0 .833 1.258 1.37 1.37 0 0 0 1.517-.275l.05-.05a1.667 1.667 0 0 1 2.358 0 1.667 1.667 0 0 1 0 2.358l-.05.05a1.37 1.37 0 0 0-.275 1.517v.067a1.37 1.37 0 0 0 1.258.833h.075A1.667 1.667 0 0 1 19.167 10a1.667 1.667 0 0 1-1.667 1.667h-.075a1.37 1.37 0 0 0-1.258.833z"/>
    </g>
</svg>

